<svg xmlns="http://www.w3.org/2000/svg" viewBox="0 0 1400 690" font-family="Helvetica, Arial, sans-serif">
<rect x="0" y="0" width="1400" height="690" fill="#ffffff"/>
<rect x="0.5" y="0.5" width="1399" height="689" fill="none" stroke="#e9ecef"/>
<text x="40" y="44" text-anchor="start" font-size="19" font-weight="700" fill="#212529" >PacBio HiFi variant-discovery pipeline</text>
<polyline points="110,320 1230,320" fill="none" stroke="#1971c2" stroke-width="9" stroke-linecap="round" stroke-linejoin="round"/>
<polyline points="110,150 270,150 270,320" fill="none" stroke="#868e96" stroke-width="7" stroke-linecap="round" stroke-linejoin="round"/>
<polyline points="290,320 290,150 1230,150" fill="none" stroke="#7048e8" stroke-width="7" stroke-linecap="round" stroke-linejoin="round" stroke-dasharray="11 8"/>
<polyline points="430,320 430,150" fill="none" stroke="#7048e8" stroke-width="7" stroke-linecap="round" stroke-linejoin="round" stroke-dasharray="11 8"/>
<polyline points="910,320 910,150" fill="none" stroke="#7048e8" stroke-width="7" stroke-linecap="round" stroke-linejoin="round" stroke-dasharray="11 8"/>
<polyline points="590,320 590,460 750,460 1064,460 1064,320" fill="none" stroke="#f08c00" stroke-width="7" stroke-linecap="round" stroke-linejoin="round" stroke-dasharray="11 8"/>
<polyline points="270,320 270,560 910,560 1076,560 1076,320" fill="none" stroke="#0ca678" stroke-width="7" stroke-linecap="round" stroke-linejoin="round" stroke-dasharray="11 8"/>
<text x="302" y="235" text-anchor="start" font-size="9"  fill="#7048e8" style="paint-order:stroke" stroke="#ffffff" stroke-width="3.4" stroke-linejoin="round">samtools stats</text>
<text x="442" y="235" text-anchor="start" font-size="9"  fill="#7048e8" style="paint-order:stroke" stroke="#ffffff" stroke-width="3.4" stroke-linejoin="round">bcftools stats</text>
<text x="922" y="235" text-anchor="start" font-size="9"  fill="#7048e8" style="paint-order:stroke" stroke="#ffffff" stroke-width="3.4" stroke-linejoin="round">VEP report</text>
<circle cx="270" cy="320" r="8" fill="#ffffff" stroke="#1971c2" stroke-width="4"/>
<text x="282" y="346" text-anchor="start" font-size="12" font-weight="600" fill="#212529" style="paint-order:stroke" stroke="#ffffff" stroke-width="3.4" stroke-linejoin="round">Align</text>
<text x="282" y="359" text-anchor="start" font-size="9.5"  fill="#868e96" style="paint-order:stroke" stroke="#ffffff" stroke-width="3.4" stroke-linejoin="round">pbmm2</text>
<path d="M285,378 L295,368 M295,368 L290,368 M295,368 L295,372" stroke="#1971c2" stroke-width="2" fill="none" stroke-linecap="round" stroke-linejoin="round"/>
<text x="303" y="376.5" text-anchor="start" font-size="10" font-weight="600" fill="#1971c2" style="paint-order:stroke" stroke="#ffffff" stroke-width="3.4" stroke-linejoin="round">BAM</text>
<circle cx="430" cy="320" r="8" fill="#ffffff" stroke="#1971c2" stroke-width="4"/>
<text x="430" y="346" text-anchor="middle" font-size="12" font-weight="600" fill="#212529" style="paint-order:stroke" stroke="#ffffff" stroke-width="3.4" stroke-linejoin="round">CallVariants</text>
<text x="430" y="359" text-anchor="middle" font-size="9.5"  fill="#868e96" style="paint-order:stroke" stroke="#ffffff" stroke-width="3.4" stroke-linejoin="round">DeepVariant</text>
<path d="M413,378 L423,368 M423,368 L419,368 M423,368 L423,372" stroke="#1971c2" stroke-width="2" fill="none" stroke-linecap="round" stroke-linejoin="round"/>
<text x="431.2" y="376.5" text-anchor="start" font-size="10" font-weight="600" fill="#1971c2" style="paint-order:stroke" stroke="#ffffff" stroke-width="3.4" stroke-linejoin="round">VCF</text>
<circle cx="590" cy="320" r="8" fill="#ffffff" stroke="#1971c2" stroke-width="4"/>
<text x="590" y="276" text-anchor="middle" font-size="12" font-weight="600" fill="#212529" style="paint-order:stroke" stroke="#ffffff" stroke-width="3.4" stroke-linejoin="round">HiPhase</text>
<text x="590" y="288" text-anchor="middle" font-size="9.5"  fill="#868e96" style="paint-order:stroke" stroke="#ffffff" stroke-width="3.4" stroke-linejoin="round">phase + haplotag</text>
<path d="M555,307 L565,297 M565,297 L560,297 M565,297 L565,302" stroke="#1971c2" stroke-width="2" fill="none" stroke-linecap="round" stroke-linejoin="round"/>
<text x="572.6" y="305.5" text-anchor="start" font-size="10" font-weight="600" fill="#1971c2" style="paint-order:stroke" stroke="#ffffff" stroke-width="3.4" stroke-linejoin="round">VCF + BAM</text>
<circle cx="750" cy="320" r="8" fill="#ffffff" stroke="#1971c2" stroke-width="4"/>
<text x="750" y="346" text-anchor="middle" font-size="12" font-weight="600" fill="#212529" style="paint-order:stroke" stroke="#ffffff" stroke-width="3.4" stroke-linejoin="round">ExtractIntervals</text>
<text x="750" y="359" text-anchor="middle" font-size="9.5"  fill="#868e96" style="paint-order:stroke" stroke="#ffffff" stroke-width="3.4" stroke-linejoin="round">bcftools</text>
<path d="M733,378 L743,368 M743,368 L739,368 M743,368 L743,372" stroke="#1971c2" stroke-width="2" fill="none" stroke-linecap="round" stroke-linejoin="round"/>
<text x="751.2" y="376.5" text-anchor="start" font-size="10" font-weight="600" fill="#1971c2" style="paint-order:stroke" stroke="#ffffff" stroke-width="3.4" stroke-linejoin="round">VCF</text>
<circle cx="910" cy="320" r="8" fill="#ffffff" stroke="#1971c2" stroke-width="4"/>
<text x="910" y="346" text-anchor="middle" font-size="12" font-weight="600" fill="#212529" style="paint-order:stroke" stroke="#ffffff" stroke-width="3.4" stroke-linejoin="round">AnnotateWithVEP</text>
<text x="910" y="359" text-anchor="middle" font-size="9.5"  fill="#868e96" style="paint-order:stroke" stroke="#ffffff" stroke-width="3.4" stroke-linejoin="round">Ensembl VEP</text>
<path d="M893,378 L903,368 M903,368 L899,368 M903,368 L903,372" stroke="#1971c2" stroke-width="2" fill="none" stroke-linecap="round" stroke-linejoin="round"/>
<text x="911.2" y="376.5" text-anchor="start" font-size="10" font-weight="600" fill="#1971c2" style="paint-order:stroke" stroke="#ffffff" stroke-width="3.4" stroke-linejoin="round">VCF</text>
<circle cx="110" cy="320" r="10" fill="#1971c2" stroke="#ffffff" stroke-width="3"/>
<text x="110" y="346" text-anchor="middle" font-size="12" font-weight="600" fill="#212529" style="paint-order:stroke" stroke="#ffffff" stroke-width="3.4" stroke-linejoin="round">HiFi reads</text>
<path d="M93,368 L103,378 M103,378 L99,378 M103,378 L103,374" stroke="#1971c2" stroke-width="2" fill="none" stroke-linecap="round" stroke-linejoin="round"/>
<text x="111.2" y="376.5" text-anchor="start" font-size="10" font-weight="600" fill="#1971c2" style="paint-order:stroke" stroke="#ffffff" stroke-width="3.4" stroke-linejoin="round">BAM</text>
<circle cx="110" cy="150" r="10" fill="#868e96" stroke="#ffffff" stroke-width="3"/>
<text x="110" y="112" text-anchor="middle" font-size="12" font-weight="600" fill="#212529" style="paint-order:stroke" stroke="#ffffff" stroke-width="3.4" stroke-linejoin="round">Reference FASTA</text>
<path d="M87,171 L97,181 M97,181 L92,181 M97,181 L97,176" stroke="#868e96" stroke-width="2" fill="none" stroke-linecap="round" stroke-linejoin="round"/>
<text x="105.0" y="179.5" text-anchor="start" font-size="10" font-weight="600" fill="#868e96" style="paint-order:stroke" stroke="#ffffff" stroke-width="3.4" stroke-linejoin="round">FASTA</text>
<circle cx="270" cy="150" r="8" fill="#ffffff" stroke="#868e96" stroke-width="4"/>
<text x="270" y="112" text-anchor="middle" font-size="12" font-weight="600" fill="#212529" style="paint-order:stroke" stroke="#ffffff" stroke-width="3.4" stroke-linejoin="round">DetectAndStandardize</text>
<text x="270" y="124" text-anchor="middle" font-size="9.5"  fill="#868e96" style="paint-order:stroke" stroke="#ffffff" stroke-width="3.4" stroke-linejoin="round">standardize</text>
<circle cx="1070" cy="320" r="8" fill="#ffffff" stroke="#1971c2" stroke-width="4"/>
<text x="1070" y="276" text-anchor="middle" font-size="12" font-weight="600" fill="#212529" style="paint-order:stroke" stroke="#ffffff" stroke-width="3.4" stroke-linejoin="round">IntervalReport</text>
<text x="1070" y="288" text-anchor="middle" font-size="9.5"  fill="#868e96" style="paint-order:stroke" stroke="#ffffff" stroke-width="3.4" stroke-linejoin="round">per interval</text>
<path d="M1028,307 L1038,297 M1038,297 L1034,297 M1038,297 L1038,302" stroke="#1971c2" stroke-width="2" fill="none" stroke-linecap="round" stroke-linejoin="round"/>
<text x="1046.4" y="305.5" text-anchor="start" font-size="10" font-weight="600" fill="#1971c2" style="paint-order:stroke" stroke="#ffffff" stroke-width="3.4" stroke-linejoin="round">HTML report</text>
<circle cx="1230" cy="320" r="10" fill="#1971c2" stroke="#ffffff" stroke-width="3"/>
<text x="1230" y="346" text-anchor="middle" font-size="12" font-weight="600" fill="#212529" style="paint-order:stroke" stroke="#ffffff" stroke-width="3.4" stroke-linejoin="round">RunReport</text>
<text x="1230" y="359" text-anchor="middle" font-size="9.5"  fill="#868e96" style="paint-order:stroke" stroke="#ffffff" stroke-width="3.4" stroke-linejoin="round">aggregate</text>
<path d="M1160,378 L1170,368 M1170,368 L1166,368 M1170,368 L1170,372" stroke="#1971c2" stroke-width="2" fill="none" stroke-linecap="round" stroke-linejoin="round"/>
<text x="1178.5" y="376.5" text-anchor="start" font-size="10" font-weight="700" fill="#1971c2" style="paint-order:stroke" stroke="#ffffff" stroke-width="3.4" stroke-linejoin="round">general_summary.html</text>
<text x="1230" y="390" text-anchor="middle" font-size="9" font-weight="600" font-style="italic" fill="#1971c2" style="paint-order:stroke" stroke="#ffffff" stroke-width="3.4" stroke-linejoin="round">final report</text>
<circle cx="1230" cy="150" r="10" fill="#7048e8" stroke="#ffffff" stroke-width="3"/>
<text x="1230" y="112" text-anchor="middle" font-size="12" font-weight="600" fill="#212529" style="paint-order:stroke" stroke="#ffffff" stroke-width="3.4" stroke-linejoin="round">MultiQC</text>
<text x="1230" y="124" text-anchor="middle" font-size="9.5"  fill="#868e96" style="paint-order:stroke" stroke="#ffffff" stroke-width="3.4" stroke-linejoin="round">global QC (optional)</text>
<path d="M1164,183 L1174,173 M1174,173 L1169,173 M1174,173 L1174,178" stroke="#7048e8" stroke-width="2" fill="none" stroke-linecap="round" stroke-linejoin="round"/>
<text x="1181.6" y="181.5" text-anchor="start" font-size="10" font-weight="600" fill="#7048e8" style="paint-order:stroke" stroke="#ffffff" stroke-width="3.4" stroke-linejoin="round">multiqc_report.html</text>
<circle cx="590" cy="460" r="8" fill="#ffffff" stroke="#f08c00" stroke-width="4"/>
<text x="590" y="486" text-anchor="middle" font-size="12" font-weight="600" fill="#212529" style="paint-order:stroke" stroke="#ffffff" stroke-width="3.4" stroke-linejoin="round">MethylationProfiling</text>
<text x="590" y="499" text-anchor="middle" font-size="9.5"  fill="#868e96" style="paint-order:stroke" stroke="#ffffff" stroke-width="3.4" stroke-linejoin="round">pb-CpG-tools (optional)</text>
<path d="M573,518 L583,508 M583,508 L579,508 M583,508 L583,512" stroke="#f08c00" stroke-width="2" fill="none" stroke-linecap="round" stroke-linejoin="round"/>
<text x="591.2" y="516.5" text-anchor="start" font-size="10" font-weight="600" fill="#f08c00" style="paint-order:stroke" stroke="#ffffff" stroke-width="3.4" stroke-linejoin="round">BED</text>
<circle cx="750" cy="460" r="8" fill="#ffffff" stroke="#f08c00" stroke-width="4"/>
<text x="750" y="486" text-anchor="middle" font-size="12" font-weight="600" fill="#212529" style="paint-order:stroke" stroke="#ffffff" stroke-width="3.4" stroke-linejoin="round">SliceMethylation</text>
<text x="750" y="499" text-anchor="middle" font-size="9.5"  fill="#868e96" style="paint-order:stroke" stroke="#ffffff" stroke-width="3.4" stroke-linejoin="round">per interval</text>
<circle cx="430" cy="560" r="8" fill="#ffffff" stroke="#0ca678" stroke-width="4"/>
<text x="430" y="586" text-anchor="middle" font-size="12" font-weight="600" fill="#212529" style="paint-order:stroke" stroke="#ffffff" stroke-width="3.4" stroke-linejoin="round">CallSV</text>
<text x="430" y="599" text-anchor="middle" font-size="9.5"  fill="#868e96" style="paint-order:stroke" stroke="#ffffff" stroke-width="3.4" stroke-linejoin="round">sawfish (optional)</text>
<path d="M413,618 L423,608 M423,608 L419,608 M423,608 L423,612" stroke="#0ca678" stroke-width="2" fill="none" stroke-linecap="round" stroke-linejoin="round"/>
<text x="431.2" y="616.5" text-anchor="start" font-size="10" font-weight="600" fill="#0ca678" style="paint-order:stroke" stroke="#ffffff" stroke-width="3.4" stroke-linejoin="round">VCF</text>
<circle cx="750" cy="560" r="8" fill="#ffffff" stroke="#0ca678" stroke-width="4"/>
<text x="750" y="586" text-anchor="middle" font-size="12" font-weight="600" fill="#212529" style="paint-order:stroke" stroke="#ffffff" stroke-width="3.4" stroke-linejoin="round">SliceSV</text>
<text x="750" y="599" text-anchor="middle" font-size="9.5"  fill="#868e96" style="paint-order:stroke" stroke="#ffffff" stroke-width="3.4" stroke-linejoin="round">bcftools</text>
<circle cx="910" cy="560" r="8" fill="#ffffff" stroke="#0ca678" stroke-width="4"/>
<text x="910" y="586" text-anchor="middle" font-size="12" font-weight="600" fill="#212529" style="paint-order:stroke" stroke="#ffffff" stroke-width="3.4" stroke-linejoin="round">AnnotateSVWithVEP</text>
<text x="910" y="599" text-anchor="middle" font-size="9.5"  fill="#868e96" style="paint-order:stroke" stroke="#ffffff" stroke-width="3.4" stroke-linejoin="round">VEP on SVs</text>
<path d="M893,618 L903,608 M903,608 L899,608 M903,608 L903,612" stroke="#0ca678" stroke-width="2" fill="none" stroke-linecap="round" stroke-linejoin="round"/>
<text x="911.2" y="616.5" text-anchor="start" font-size="10" font-weight="600" fill="#0ca678" style="paint-order:stroke" stroke="#ffffff" stroke-width="3.4" stroke-linejoin="round">VCF</text>
<line x1="60" y1="655" x2="86" y2="655" stroke="#1971c2" stroke-width="6" stroke-linecap="round"/>
<text x="94" y="659" text-anchor="start" font-size="11"  fill="#212529" >Small variants (always on)</text>
<line x1="320" y1="655" x2="346" y2="655" stroke="#868e96" stroke-width="6" stroke-linecap="round"/>
<text x="354" y="659" text-anchor="start" font-size="11"  fill="#212529" >Reference prep</text>
<line x1="480" y1="655" x2="506" y2="655" stroke="#f08c00" stroke-width="6" stroke-linecap="round" stroke-dasharray="6 4"/>
<text x="514" y="659" text-anchor="start" font-size="11"  fill="#212529" >Methylation (optional)</text>
<line x1="700" y1="655" x2="726" y2="655" stroke="#0ca678" stroke-width="6" stroke-linecap="round" stroke-dasharray="6 4"/>
<text x="734" y="659" text-anchor="start" font-size="11"  fill="#212529" >Structural variants (optional)</text>
<line x1="960" y1="655" x2="986" y2="655" stroke="#7048e8" stroke-width="6" stroke-linecap="round" stroke-dasharray="6 4"/>
<text x="994" y="659" text-anchor="start" font-size="11"  fill="#212529" >QC / MultiQC (optional)</text>
</svg>
